HIERARCHY
ROOT Hips
{
	OFFSET 0.000000 0.000000 0.000000
	CHANNELS 6 Xposition Yposition Zposition Zrotation Yrotation Xrotation 
	JOINT LHipJoint
	{
		OFFSET 0.000000 0.000000 0.000000
		CHANNELS 3 Zrotation Yrotation Xrotation
		JOINT LeftUpLeg
		{
			OFFSET 1.363060 -1.794630 0.839290
			CHANNELS 3 Zrotation Yrotation Xrotation
			JOINT LeftLeg
			{
				OFFSET 2.448110 -6.726130 0.000000
				CHANNELS 3 Zrotation Yrotation Xrotation
				JOINT LeftFoot
				{
					OFFSET 2.562200 -7.039590 0.000000
					CHANNELS 3 Zrotation Yrotation Xrotation
					JOINT LeftToeBase
					{
						OFFSET 0.157640 -0.433110 2.322550
						CHANNELS 3 Zrotation Yrotation Xrotation
						End Site
						{
							OFFSET 0.000000 0.000000 0.000000
						}
					}
				}
			}
		}
	}
	JOINT RHipJoint
	{
		OFFSET 0.000000 0.000000 0.000000
		CHANNELS 3 Zrotation Yrotation Xrotation
		JOINT RightUpLeg
		{
			OFFSET -1.305520 -1.794630 0.839290
			CHANNELS 3 Zrotation Yrotation Xrotation
			JOINT RightLeg
			{
				OFFSET -2.542530 -6.985550 0.000000
				CHANNELS 3 Zrotation Yrotation Xrotation
				JOINT RightFoot
				{
					OFFSET -2.568260 -7.056230 0.000000
					CHANNELS 3 Zrotation Yrotation Xrotation
					JOINT RightToeBase
					{
						OFFSET -0.164730 -0.452590 2.363150
						CHANNELS 3 Zrotation Yrotation Xrotation
						End Site
						{
							OFFSET 0.000000 0.000000 0.000000
						}
					}
				}
			}
		}
	}
	JOINT LowerBack
	{
		OFFSET 0.000000 0.000000 0.000000
		CHANNELS 3 Zrotation Yrotation Xrotation
		JOINT Spine
		{
			OFFSET 0.028270 2.035590 -0.193380
			CHANNELS 3 Zrotation Yrotation Xrotation
			JOINT Spine1
			{
				OFFSET 0.056720 2.048850 -0.042750
				CHANNELS 3 Zrotation Yrotation Xrotation
				JOINT Neck
				{
					OFFSET 0.000000 0.000000 0.000000
					CHANNELS 3 Zrotation Yrotation Xrotation
					JOINT Neck1
					{
						OFFSET -0.054170 1.746240 0.172020
						CHANNELS 3 Zrotation Yrotation Xrotation
						JOINT Head
						{
							OFFSET 0.104070 1.761360 -0.123970
							CHANNELS 3 Zrotation Yrotation Xrotation
							End Site
							{
								OFFSET 0.000000 0.000000 0.000000
							}
						}
					}
				}
				JOINT LeftShoulder
				{
					OFFSET 0.000000 0.000000 0.000000
					CHANNELS 3 Zrotation Yrotation Xrotation
					JOINT LeftArm
					{
						OFFSET 3.362410 1.200890 -0.311210
						CHANNELS 3 Zrotation Yrotation Xrotation
						JOINT LeftForeArm
						{
							OFFSET 4.983000 -0.000000 -0.000000
							CHANNELS 3 Zrotation Yrotation Xrotation
							JOINT LeftHand
							{
								OFFSET 3.483560 -0.000000 -0.000000
								CHANNELS 3 Zrotation Yrotation Xrotation
								JOINT LeftFingerBase
								{
									OFFSET 0.000000 0.000000 0.000000
									CHANNELS 3 Zrotation Yrotation Xrotation
									JOINT LeftHandIndex1
									{
										OFFSET 0.715260 -0.000000 -0.000000
										CHANNELS 3 Zrotation Yrotation Xrotation
										End Site
										{
											OFFSET 0.000000 0.000000 0.000000
										}
									}
								}
								JOINT LThumb
								{
									OFFSET 0.000000 0.000000 0.000000
									CHANNELS 3 Zrotation Yrotation Xrotation
									End Site
									{
										OFFSET 0.000000 0.000000 0.000000
									}
								}
							}
						}
					}
				}
				JOINT RightShoulder
				{
					OFFSET 0.000000 0.000000 0.000000
					CHANNELS 3 Zrotation Yrotation Xrotation
					JOINT RightArm
					{
						OFFSET -3.136600 1.374050 -0.404650
						CHANNELS 3 Zrotation Yrotation Xrotation
						JOINT RightForeArm
						{
							OFFSET -5.241900 -0.000000 -0.000000
							CHANNELS 3 Zrotation Yrotation Xrotation
							JOINT RightHand
							{
								OFFSET -3.444170 -0.000000 -0.000000
								CHANNELS 3 Zrotation Yrotation Xrotation
								JOINT RightFingerBase
								{
									OFFSET 0.000000 0.000000 0.000000
									CHANNELS 3 Zrotation Yrotation Xrotation
									JOINT RightHandIndex1
									{
										OFFSET -0.622530 -0.000000 -0.000000
										CHANNELS 3 Zrotation Yrotation Xrotation
										End Site
										{
											OFFSET 0.000000 0.000000 0.000000
										}
									}
								}
								JOINT RThumb
								{
									OFFSET 0.000000 0.000000 0.000000
									CHANNELS 3 Zrotation Yrotation Xrotation
									End Site
									{
										OFFSET 0.000000 0.000000 0.000000
									}
								}
							}
						}
					}
				}
			}
		}
	}
}
MOTION
Frames: 5
Frame Time: 0.008333
6.747611 17.586484 29.729226 -154.044752 -86.344337 167.889134 11.159959 0.878497 -4.928968 -16.852335 -15.336315 -3.576492 -6.185147 0.802647 -0.026881 -6.818835 25.305253 15.147177 0.619900 -5.038500 -14.018500 -13.063331 -0.005079 -4.210476 22.599533 24.467153 -8.051533 4.463761 -9.572854 18.359955 8.265210 -25.685102 -2.363011 -0.312000 3.590700 -9.927900 1.426602 1.964143 -13.826844 0.926908 1.747347 -4.459092 -2.833356 1.072114 6.139387 3.183024 8.178376 -14.364696 3.038133 9.911720 11.161671 -2.556400 5.094200 10.925000 -4.282180 -8.088604 -1.476768 -74.736061 2.371971 55.679674 14.946504 -19.836621 -4.094201 -2.093423 -3.245016 -42.151475 28.794161 1.140424 1.401900 -7.125000 0.000000 0.000000 4.815900 32.561200 -1.471500 8.757587 8.897867 -0.702581 75.298789 -1.645573 46.814804 -15.205364 17.694987 -3.290285 1.537960 1.466877 -6.693480 -16.655686 -17.363711 6.018000 7.125000 0.000000 0.000000 9.614100 -49.189300 -1.001600 
6.741898 17.585700 29.737963 -154.993950 -86.305271 168.803099 11.185424 0.875314 -4.944045 -16.978689 -15.264696 -3.507633 -6.190859 0.799439 -0.007995 -6.813308 25.271531 15.091926 0.618500 -5.033100 -14.003100 -13.052226 -0.018469 -4.195468 22.536938 24.548126 -8.004039 4.454096 -9.579992 18.389914 8.279342 -25.708481 -2.401039 -0.313400 3.599000 -9.951200 1.368958 1.942180 -13.854670 0.932258 1.728906 -4.454545 -2.809043 1.061262 6.159290 3.294158 8.310497 -14.345220 2.932758 10.083371 11.215416 -2.636300 5.172600 10.992300 -4.260724 -8.087660 -1.465807 -74.724261 2.355133 55.734327 14.937712 -19.834106 -4.091127 -2.094467 -3.242077 -42.121897 28.783191 1.134002 1.396500 -7.125000 0.000000 0.000000 4.805300 32.552000 -1.469300 8.787041 8.890708 -0.693744 75.269473 -1.641803 46.850665 -15.205284 17.692950 -3.291120 1.537669 1.475210 -6.814628 -16.662526 -17.399306 6.034000 7.125000 0.000000 0.000000 9.616600 -49.231400 -1.011900 
6.736074 17.584804 29.746587 -155.887896 -86.262727 169.657137 11.210821 0.874233 -4.958181 -17.103152 -15.192352 -3.436418 -6.196360 0.796096 0.011311 -6.807841 25.237515 15.036592 0.617700 -5.030000 -13.994300 -13.040299 -0.032240 -4.182349 22.477648 24.611257 -7.957224 4.444747 -9.585676 18.419867 8.288165 -25.718049 -2.430507 -0.314500 3.605200 -9.968500 1.317066 1.922800 -13.881277 0.936306 1.713735 -4.448615 -2.788759 1.052133 6.186261 3.393938 8.442405 -14.330923 2.834854 10.258339 11.267618 -2.706500 5.251900 11.057900 -4.241040 -8.086182 -1.454069 -74.701797 2.333098 55.801096 14.931427 -19.834852 -4.089326 -2.093554 -3.238318 -42.104395 28.757014 1.121647 1.386500 -7.125000 0.000000 0.000000 4.780700 32.536500 -1.463500 8.814737 8.883946 -0.684876 75.245110 -1.627998 46.869737 -15.200439 17.686206 -3.290166 1.537800 1.483784 -6.935889 -16.669393 -17.438094 6.051100 7.125000 0.000000 0.000000 9.619800 -49.277200 -1.023200 
6.730362 17.583796 29.755548 -156.719949 -86.219817 170.446147 11.236169 0.875072 -4.970934 -17.227107 -15.122897 -3.362318 -6.201824 0.792609 0.030458 -6.802941 25.204433 14.980373 0.616300 -5.024400 -13.978300 -13.026216 -0.047611 -4.171796 22.419288 24.639801 -7.915021 4.435520 -9.589626 18.450317 8.288017 -25.703876 -2.440568 -0.317400 3.621300 -10.013600 1.273473 1.906780 -13.905117 0.939375 1.701771 -4.441355 -2.772755 1.044683 6.219516 3.476678 8.572776 -14.320694 2.743053 10.435980 11.317617 -2.766400 5.331000 11.120500 -4.223522 -8.084274 -1.441988 -74.676655 2.306379 55.877594 14.927935 -19.838416 -4.088857 -2.090587 -3.234281 -42.097426 28.717162 1.107260 1.374800 -7.125000 0.000000 0.000000 4.743700 32.517800 -1.454300 8.840211 8.877202 -0.675733 75.220421 -1.606717 46.874771 -15.192329 17.677033 -3.288161 1.537568 1.492476 -7.058900 -16.670038 -17.474913 6.065500 7.125000 0.000000 0.000000 9.628700 -49.320000 -1.034400 
6.724761 17.582900 29.764956 -157.486548 -86.178794 171.171821 11.260868 0.876213 -4.982317 -17.348030 -15.059670 -3.292698 -6.207236 0.789557 0.047881 -6.798096 25.173500 14.925880 0.614300 -5.016100 -13.954600 -13.009478 -0.063612 -4.163801 22.356615 24.634548 -7.884421 4.426661 -9.591824 18.478165 8.281365 -25.673090 -2.425764 -0.322400 3.649900 -10.093600 1.238483 1.892224 -13.930968 0.942538 1.689585 -4.433643 -2.757984 1.037344 6.256921 3.536429 8.702667 -14.311743 2.659051 10.619137 11.365482 -2.813500 5.410900 11.178600 -4.208614 -8.082110 -1.430255 -74.659598 2.275483 55.950857 14.924843 -19.841076 -4.088348 -2.087977 -3.231469 -42.095517 28.685227 1.096591 1.366100 -7.125000 0.000000 0.000000 4.714300 32.504200 -1.446800 8.863626 8.870733 -0.666020 75.190920 -1.579285 46.869276 -15.181259 17.665340 -3.285005 1.537002 1.501149 -7.179160 -16.663850 -17.510158 6.076800 7.125000 0.000000 0.000000 9.644100 -49.360300 -1.045700 
